<?xml version="1.0" standalone="no"?>
<!DOCTYPE svg PUBLIC "-//W3C//DTD SVG 20010904//EN"
 "http://www.w3.org/TR/2001/REC-SVG-20010904/DTD/svg10.dtd">
<svg version="1.0" xmlns="http://www.w3.org/2000/svg"
 width="1360.000000pt" height="1360.000000pt" viewBox="0 0 1360.000000 1360.000000"
 preserveAspectRatio="xMidYMid meet">
<metadata>
Created by potrace 1.11, written by Peter Selinger 2001-2013
</metadata>
<g transform="translate(0.000000,1360.000000) scale(0.100000,-0.100000)"
fill="#000000" stroke="none">
<path d="M6530 9719 c-49 -7 -187 -31 -200 -34 -203 -51 -398 -129 -528 -212
-29 -18 -56 -33 -61 -33 -5 0 -11 -4 -13 -8 -1 -5 -25 -23 -53 -42 -27 -19
-55 -39 -61 -45 -6 -5 -30 -25 -53 -44 -69 -56 -175 -167 -226 -236 -17 -22
-36 -46 -42 -53 -7 -7 -13 -17 -13 -21 0 -4 -8 -16 -17 -27 -19 -22 -31 -40
-76 -124 -16 -30 -33 -59 -37 -65 -4 -5 -13 -28 -20 -50 -7 -22 -16 -44 -20
-50 -6 -9 -29 -70 -36 -100 -2 -5 -10 -35 -18 -65 -8 -30 -17 -68 -20 -85 -3
-16 -8 -41 -11 -55 -10 -50 -19 -157 -19 -240 0 -89 11 -248 19 -259 2 -4 6
-25 9 -47 3 -21 9 -54 15 -71 5 -18 7 -33 3 -33 -3 0 -1 -5 6 -12 7 -7 12 -20
12 -29 0 -19 57 -163 98 -247 30 -64 129 -217 170 -265 97 -113 174 -189 259
-257 l52 -41 0 -274 c0 -265 0 -276 21 -305 12 -17 34 -37 50 -45 52 -27 90
-19 226 49 71 35 211 105 312 155 101 50 188 89 193 85 17 -10 132 -17 299
-18 196 -1 265 7 430 45 102 24 115 27 115 29 0 1 7 3 15 5 83 22 381 156 388
176 2 5 10 9 18 9 8 0 14 4 14 9 0 5 8 11 18 14 36 10 191 135 287 233 55 55
129 142 165 192 64 91 183 302 175 311 -3 2 -1 9 4 15 24 31 83 249 98 361 14
116 8 401 -11 486 -3 13 -8 35 -10 49 -7 40 -51 180 -75 240 -48 118 -142 279
-225 384 -41 51 -225 235 -261 261 -16 11 -33 25 -39 30 -22 21 -203 134 -261
163 -128 64 -288 124 -395 148 -19 4 -39 9 -45 10 -116 27 -214 37 -380 39
-104 1 -215 -1 -245 -6z m455 -273 c17 -4 65 -13 108 -22 213 -42 462 -160
632 -297 49 -39 185 -174 215 -213 19 -23 81 -112 98 -139 41 -66 120 -241
137 -305 34 -127 44 -224 40 -370 -4 -173 -4 -172 -35 -295 -52 -209 -170
-412 -336 -581 -72 -72 -222 -194 -239 -194 -4 0 -21 -11 -38 -24 -39 -28
-150 -84 -232 -115 -33 -13 -69 -27 -80 -32 -11 -5 -29 -11 -40 -13 -11 -2
-48 -11 -81 -20 -34 -9 -77 -18 -95 -20 -19 -3 -34 -5 -34 -6 0 -2 -36 -6
-110 -15 -105 -11 -299 -6 -385 11 -113 22 -111 23 -325 -83 -110 -54 -203
-102 -207 -108 -4 -5 -8 -7 -8 -2 0 4 -11 0 -25 -9 -14 -9 -25 -15 -26 -13 0
2 -2 94 -3 204 -1 183 -3 203 -21 227 -17 23 -109 98 -119 98 -6 0 -125 111
-165 153 -65 69 -147 187 -194 275 -42 82 -112 262 -101 262 2 0 0 9 -5 19 -6
10 -13 36 -16 57 -2 22 -8 62 -12 89 -13 98 -8 283 13 405 11 67 75 243 116
323 38 73 112 183 163 246 80 95 250 237 365 305 96 57 273 134 348 151 9 3
35 9 57 15 78 21 94 24 200 40 56 9 394 5 440 -4z"/>
<path d="M6257 8996 c-92 -33 -200 -126 -282 -241 -35 -49 -136 -229 -133
-238 0 -1 -9 -33 -21 -72 -40 -128 -50 -202 -46 -345 2 -74 5 -146 8 -160 8
-39 37 -153 44 -170 3 -8 7 -17 8 -20 21 -62 69 -157 114 -225 47 -72 167
-199 211 -224 78 -45 107 -54 180 -56 91 -2 125 8 167 48 41 38 46 71 48 287
1 169 -3 198 -39 238 -19 21 -68 53 -81 52 -113 -4 -137 0 -170 33 l-32 32 3
120 c2 66 5 153 6 193 1 65 4 76 28 103 20 20 38 29 62 30 36 1 103 5 130 7
27 3 86 60 97 95 6 18 12 118 13 222 2 214 -3 235 -68 278 -30 21 -48 25 -122
25 -52 1 -102 -4 -125 -12z m169 -286 c1 -85 -2 -161 -6 -168 -4 -9 -30 -15
-71 -17 -35 -1 -73 -5 -84 -8 -11 -3 -23 -6 -26 -6 -3 -1 -23 -15 -44 -31 -38
-30 -75 -80 -83 -110 -10 -39 -18 -189 -17 -325 0 -160 4 -177 57 -235 55 -61
120 -87 206 -84 33 1 52 -2 52 -10 3 -60 -2 -321 -6 -325 -14 -14 -118 0 -152
21 -148 90 -293 335 -328 553 -14 94 -10 260 11 364 16 84 71 211 132 305 50
77 174 206 198 206 8 0 15 4 15 9 0 12 31 17 95 17 l50 -1 1 -155z"/>
<path d="M7016 8965 c-75 -40 -81 -61 -81 -295 0 -196 1 -206 22 -236 36 -50
70 -67 143 -70 154 -8 152 -5 158 -239 2 -102 1 -197 -2 -211 -10 -39 -61 -64
-133 -64 -81 0 -132 -21 -163 -67 -24 -35 -25 -42 -28 -237 -4 -227 2 -253 65
-296 29 -20 52 -26 111 -29 41 -2 91 2 111 7 20 6 38 10 41 9 3 -1 33 18 68
42 63 44 157 138 189 189 10 15 23 32 29 39 37 39 162 332 148 346 -3 3 -1 14
4 24 28 52 32 343 7 443 -4 14 -10 41 -15 60 -10 45 -44 136 -64 175 -9 17
-16 33 -16 37 0 8 -84 142 -104 165 -81 96 -108 124 -150 153 -90 63 -120 73
-225 75 -59 1 -83 -3 -115 -20z m214 -143 c33 -15 119 -96 165 -154 147 -186
220 -493 174 -728 -12 -64 -17 -84 -19 -87 -2 -2 -3 -6 -4 -10 -40 -153 -146
-325 -257 -418 -54 -45 -82 -57 -145 -60 -44 -3 -64 0 -65 8 -2 21 -1 201 1
212 1 6 1 15 0 20 -3 15 1 89 6 94 2 2 25 4 51 3 122 -2 224 64 257 165 24 74
16 434 -12 496 -39 87 -117 136 -227 140 -48 1 -66 6 -69 17 -3 8 -4 83 -4
167 l1 152 31 3 c43 5 75 0 116 -20z"/>
<path d="M7540 5780 c-160 -33 -266 -88 -367 -189 -133 -132 -192 -298 -188
-531 3 -154 6 -175 45 -283 57 -154 163 -272 315 -347 195 -96 475 -112 685
-39 30 10 59 20 65 22 5 1 25 11 44 22 l34 21 1 137 c0 75 0 137 -2 137 -1 0
-49 -22 -105 -50 -257 -125 -508 -89 -632 91 -33 47 -73 154 -71 192 1 15 -1
27 -5 27 -3 0 -5 46 -3 103 2 76 9 120 27 174 23 68 71 142 109 171 9 7 24 19
32 28 21 21 103 56 146 62 83 13 240 3 278 -17 11 -6 21 -8 24 -6 3 3 203 -90
203 -95 0 0 -1 46 -2 102 -1 57 -2 122 -2 144 -1 40 -2 42 -58 67 -118 52
-197 68 -363 72 -91 2 -148 -2 -210 -15z"/>
<path d="M178 5760 c-3 -13 -2 -1363 1 -1382 1 -4 78 -7 172 -7 141 1 169 4
165 15 -3 8 -1 14 5 14 6 0 7 5 4 10 -4 6 -6 51 -5 100 0 50 1 98 1 108 0 9 0
53 0 97 0 44 0 85 0 90 -1 52 -2 242 0 250 1 6 1 13 0 18 -2 11 -3 201 -1 267
l1 55 18 -45 c10 -25 27 -65 38 -90 47 -104 124 -290 125 -300 0 -3 3 -9 8
-15 4 -5 29 -62 55 -125 26 -63 52 -119 56 -125 5 -5 9 -17 9 -27 0 -9 9 -22
20 -28 11 -6 20 -7 20 -3 0 4 45 8 101 8 l101 0 109 255 c60 140 116 269 123
285 8 17 28 64 45 105 17 41 35 80 39 87 4 6 7 -217 7 -495 l0 -507 170 0 170
0 0 697 c0 615 -1 697 -15 700 -22 6 -438 3 -443 -2 -3 -3 -32 -70 -66 -150
-34 -80 -71 -164 -82 -187 -10 -24 -19 -45 -19 -47 0 -2 -12 -30 -27 -62 -14
-33 -27 -64 -29 -70 -1 -6 -15 -40 -31 -75 -17 -35 -34 -75 -38 -89 -22 -69
-29 -65 -75 43 -24 56 -51 120 -61 142 -10 22 -57 132 -104 244 -48 113 -92
216 -100 230 l-13 26 -226 0 c-192 0 -225 -2 -228 -15z"/>
<path d="M2481 5765 c-4 -5 -7 -320 -6 -700 l0 -690 498 -2 497 -2 1 25 c0 13
1 71 1 129 0 58 -1 109 -1 113 -1 5 -143 8 -316 8 -308 -1 -315 -1 -316 19 -4
89 0 287 6 293 3 4 124 8 268 9 144 0 271 2 282 2 20 1 21 7 20 130 0 71 -3
132 -6 136 -4 3 -134 7 -289 8 l-283 2 0 123 c0 67 2 124 4 127 5 4 108 9 124
5 6 -1 15 -2 20 -1 6 1 112 2 238 2 l227 -1 1 38 c1 41 1 161 0 207 l-1 30
-481 0 c-309 0 -483 -4 -488 -10z"/>
<path d="M4179 5770 c-5 -19 -3 -1384 1 -1391 7 -10 566 -5 665 5 100 11 111
13 192 37 142 41 275 140 355 263 21 33 38 62 38 66 0 4 8 25 17 46 17 40 20
50 28 94 2 14 7 39 10 55 9 44 10 192 2 254 -29 212 -163 398 -351 486 -110
52 -172 67 -335 81 -85 8 -621 11 -622 4z m646 -284 c17 -4 58 -21 93 -38 114
-57 182 -158 197 -293 10 -78 11 -125 5 -125 -3 0 -6 -17 -6 -38 -3 -68 -40
-158 -90 -214 -38 -44 -117 -95 -153 -101 -9 -1 -20 -5 -26 -9 -23 -14 -269
-32 -300 -21 -8 2 -12 637 -6 832 l1 23 128 -5 c70 -3 141 -8 157 -11z"/>
<path d="M6162 5770 c-6 -4 -8 -1333 -3 -1387 1 -8 50 -11 179 -10 l177 2 1
698 c1 383 -2 698 -5 698 -21 4 -343 3 -349 -1z"/>
<path d="M9169 5745 c-7 -16 -13 -32 -14 -35 -1 -3 -4 -12 -8 -20 -3 -8 -33
-91 -67 -185 -63 -173 -66 -180 -93 -250 -9 -22 -32 -85 -52 -140 -20 -55 -49
-134 -65 -175 -16 -41 -52 -138 -80 -215 -28 -77 -57 -156 -65 -175 -8 -19
-25 -67 -39 -107 l-25 -71 182 1 182 2 28 80 c16 44 33 96 39 115 5 19 14 40
20 47 13 16 555 15 566 -1 4 -6 25 -63 47 -126 l40 -115 170 -3 c94 -1 175 0
182 2 9 4 7 17 -7 53 -10 26 -32 84 -48 128 -16 44 -33 89 -37 100 -4 11 -9
25 -11 30 -2 6 -37 102 -79 215 -43 113 -81 216 -85 230 -5 14 -18 50 -30 80
-11 30 -41 111 -66 180 -25 69 -49 134 -53 145 -5 11 -13 31 -19 45 -5 14 -15
41 -22 60 -7 19 -18 49 -25 65 -7 17 -15 39 -19 50 -6 19 -14 20 -221 20
l-215 0 -11 -30z m250 -367 c11 -35 25 -79 32 -98 7 -19 14 -42 17 -50 3 -8 6
-17 7 -20 1 -3 4 -12 8 -20 27 -68 98 -292 94 -297 -8 -7 -356 -7 -364 0 -3 3
23 86 56 184 34 98 63 183 65 188 7 30 58 175 61 175 2 0 13 -28 24 -62z"/>
<path d="M10704 5768 c-4 -6 -6 -825 -4 -1355 l0 -42 497 2 498 2 1 125 c0 69
-1 130 -3 135 -2 7 -104 10 -296 10 -160 0 -302 2 -314 4 l-23 3 1 555 c0 306
-3 558 -6 561 -9 9 -346 9 -351 0z"/>
<path d="M12325 5772 c-20 -3 -20 -10 -18 -685 1 -375 2 -690 2 -699 1 -16 38
-17 495 -17 369 1 495 4 498 12 2 7 4 68 3 137 l-1 125 -314 0 -315 0 -5 565
-5 565 -160 0 c-88 0 -169 -1 -180 -3z"/>
</g>
</svg>
