<svg id="calendar" xmlns="http://www.w3.org/2000/svg" width="23.055" height="21.166" viewBox="0 0 23.055 21.166">
  <path id="Path_35" data-name="Path 35" d="M20.413,61.663H2.642A2.521,2.521,0,0,1,0,59.289V45.042a2.521,2.521,0,0,1,2.642-2.374H20.413a2.521,2.521,0,0,1,2.642,2.374V59.289A2.521,2.521,0,0,1,20.413,61.663ZM2.642,43.963a1.146,1.146,0,0,0-1.2,1.079V59.289a1.147,1.147,0,0,0,1.2,1.079H20.413a1.147,1.147,0,0,0,1.2-1.079V45.042a1.146,1.146,0,0,0-1.2-1.079Zm0,0" transform="translate(0 -40.497)" fill="#b1b1b1"/>
  <path id="Path_36" data-name="Path 36" d="M22.334,172.3H.72a.82.82,0,0,1,0-1.628H22.334a.82.82,0,0,1,0,1.628Zm0,0" transform="translate(0 -163.721)" fill="#b1b1b1"/>
  <path id="Path_37" data-name="Path 37" d="M107.482,6.513a.814.814,0,0,1-.814-.814V.814a.814.814,0,1,1,1.628,0V5.7A.814.814,0,0,1,107.482,6.513Zm0,0" transform="translate(-101.906)" fill="#b1b1b1"/>
  <path id="Path_38" data-name="Path 38" d="M374.146,6.513a.814.814,0,0,1-.814-.814V.814a.814.814,0,0,1,1.628,0V5.7A.814.814,0,0,1,374.146,6.513Zm0,0" transform="translate(-356.667)" fill="#b1b1b1"/>
</svg>
