<svg xmlns="http://www.w3.org/2000/svg" width="18.429" height="18.429" viewBox="0 0 18.429 18.429">
  <g id="drugs" transform="translate(0 0.001)">
    <g id="Group_1" data-name="Group 1" transform="translate(0 -0.001)">
      <path id="Path_6" data-name="Path 6" d="M15.959,9.34,17,8.295a4.859,4.859,0,0,0-6.871-6.871l-8.71,8.71A4.859,4.859,0,0,0,8.3,17l1.045-1.045A4.858,4.858,0,1,0,15.959,9.34ZM8.711,13.569a4.848,4.848,0,0,0,.18,1.313L7.532,16.241A3.779,3.779,0,0,1,2.188,10.9l3.94-3.94,3.618,3.618A4.835,4.835,0,0,0,8.711,13.569Zm4.319,3.74a3.779,3.779,0,0,1,0-7.48ZM10.5,9.8,6.891,6.193,10.9,2.187a3.779,3.779,0,0,1,5.344,5.344L14.882,8.89A4.854,4.854,0,0,0,10.5,9.8Zm3.607,7.505V9.828a3.779,3.779,0,0,1,0,7.48Z" transform="translate(0 0.001)" fill="#b1b1b1"/>
    </g>
  </g>
</svg>
