<svg id="history" xmlns="http://www.w3.org/2000/svg" width="16.553" height="17.505" viewBox="0 0 16.553 17.505">
  <path id="Path_7" data-name="Path 7" d="M8.923,4.718V8.469l2.354,2.489a.712.712,0,0,1,0,.967.622.622,0,0,1-.914,0L7.819,9.236a.7.7,0,0,1-.189-.484V4.718a.648.648,0,1,1,1.293,0ZM10.82,0H5.733a5.535,5.535,0,0,0-3.76,1.487v-.8A.666.666,0,0,0,1.327,0,.666.666,0,0,0,.681.684v2.69a.668.668,0,0,0,.647.684H3.87a.666.666,0,0,0,.647-.684A.666.666,0,0,0,3.87,2.69H2.647A4.332,4.332,0,0,1,5.733,1.368H10.82a4.578,4.578,0,0,1,4.44,4.7v5.379a4.578,4.578,0,0,1-4.44,4.7H5.733a4.578,4.578,0,0,1-4.44-4.7V8.753a.666.666,0,0,0-.647-.684A.666.666,0,0,0,0,8.753v2.69a5.912,5.912,0,0,0,5.733,6.063H10.82a5.912,5.912,0,0,0,5.733-6.063V6.063A5.912,5.912,0,0,0,10.82,0Z" transform="translate(0)" fill="#b1b1b1"/>
</svg>
