<svg xmlns="http://www.w3.org/2000/svg" width="19.224" height="19.224" viewBox="0 0 19.224 19.224">
  <g id="Icon_feather-settings" data-name="Icon feather-settings" transform="translate(-0.75 -0.75)">
    <path id="Path_18" data-name="Path 18" d="M18.334,15.917A2.417,2.417,0,1,1,15.917,13.5,2.417,2.417,0,0,1,18.334,15.917Z" transform="translate(-5.555 -5.555)" fill="none" stroke="#b1b1b1" stroke-linecap="round" stroke-linejoin="round" stroke-width="1.5"/>
    <path id="Path_19" data-name="Path 19" d="M16.324,12.779a1.329,1.329,0,0,0,.266,1.466l.048.048a1.612,1.612,0,1,1-2.28,2.28l-.048-.048a1.34,1.34,0,0,0-2.272.951v.137a1.611,1.611,0,0,1-3.223,0V17.54a1.329,1.329,0,0,0-.87-1.216,1.329,1.329,0,0,0-1.466.266l-.048.048a1.612,1.612,0,1,1-2.28-2.28l.048-.048a1.34,1.34,0,0,0-.951-2.272H3.111a1.611,1.611,0,0,1,0-3.223h.073A1.329,1.329,0,0,0,4.4,7.945a1.329,1.329,0,0,0-.266-1.466L4.086,6.43a1.612,1.612,0,1,1,2.28-2.28l.048.048a1.329,1.329,0,0,0,1.466.266h.064a1.329,1.329,0,0,0,.806-1.216V3.111a1.611,1.611,0,1,1,3.223,0v.073a1.34,1.34,0,0,0,2.272.951l.048-.048a1.612,1.612,0,1,1,2.28,2.28l-.048.048a1.329,1.329,0,0,0-.266,1.466v.064a1.329,1.329,0,0,0,1.216.806h.137a1.611,1.611,0,0,1,0,3.223H17.54a1.329,1.329,0,0,0-1.216.806Z" transform="translate(0 0)" fill="none" stroke="#b1b1b1" stroke-linecap="round" stroke-linejoin="round" stroke-width="1.5"/>
  </g>
</svg>
