<svg xmlns="http://www.w3.org/2000/svg" width="17.796" height="19.414" viewBox="0 0 17.796 19.414">
  <path id="Icon_metro-stethoscope" data-name="Icon metro-stethoscope" d="M22.048,11.687a.82.82,0,1,0-.24.569A.777.777,0,0,0,22.048,11.687Zm1.618,0a2.332,2.332,0,0,1-.449,1.4,2.465,2.465,0,0,1-1.169.885v4.993A4.366,4.366,0,0,1,20.386,22.4a5.948,5.948,0,0,1-4,1.422,5.948,5.948,0,0,1-4-1.422,4.366,4.366,0,0,1-1.662-3.432V17.3A5.794,5.794,0,0,1,7.26,15.681,4.328,4.328,0,0,1,5.869,12.5V6.025a.82.82,0,0,1,.809-.809,1.087,1.087,0,0,1,.2.025,1.641,1.641,0,0,1,.594-.607,1.616,1.616,0,0,1,2.439,1.39A1.618,1.618,0,0,1,8.3,7.643a1.591,1.591,0,0,1-.809-.228V12.5a2.841,2.841,0,0,0,1.188,2.288,4.438,4.438,0,0,0,2.857.948,4.438,4.438,0,0,0,2.857-.948A2.841,2.841,0,0,0,15.577,12.5V7.415a1.591,1.591,0,0,1-.809.228A1.618,1.618,0,0,1,13.15,6.025a1.613,1.613,0,0,1,2.439-1.39,1.641,1.641,0,0,1,.594.607,1.087,1.087,0,0,1,.2-.025.82.82,0,0,1,.809.809V12.5a4.327,4.327,0,0,1-1.39,3.185A5.8,5.8,0,0,1,12.341,17.3v1.668a2.841,2.841,0,0,0,1.188,2.288,4.438,4.438,0,0,0,2.857.948,4.438,4.438,0,0,0,2.857-.948,2.841,2.841,0,0,0,1.188-2.288V13.975a2.465,2.465,0,0,1-1.169-.885,2.428,2.428,0,1,1,4.4-1.4Z" transform="translate(-5.869 -4.407)" fill="#001e13"/>
</svg>
