<svg xmlns="http://www.w3.org/2000/svg" width="341.25" height="455" viewBox="0 0 341.25 455">
  <path id="Icon_awesome-file-pdf" data-name="Icon awesome-file-pdf" d="M161.649,227.589c-4.443-14.219-4.354-41.679-1.777-41.679C167.337,185.91,166.626,218.7,161.649,227.589Zm-1.511,41.945c-6.843,17.951-15.374,38.479-25.238,55.72,16.263-6.221,34.658-15.285,55.9-19.462C179.512,297.261,168.67,285,160.139,269.534ZM76.515,380.441c0,.711,11.73-4.8,31.015-35.725C101.575,350.315,81.669,366.488,76.515,380.441ZM220.391,142.188H341.25V433.672A21.277,21.277,0,0,1,319.922,455H21.328A21.277,21.277,0,0,1,0,433.672V21.328A21.277,21.277,0,0,1,21.328,0H199.063V120.859A21.391,21.391,0,0,0,220.391,142.188Zm-7.109,152.674c-17.773-10.842-29.593-25.771-37.946-47.811,4-16.44,10.309-41.412,5.51-57.053-4.177-26.127-37.68-23.55-42.479-6.043-4.443,16.263-.355,39.19,7.2,68.428-10.309,24.527-25.5,57.408-36.258,76.248-.089,0-.089.089-.178.089C85.046,341.072,43.723,368.266,60.7,389.15c4.977,6.132,14.219,8.887,19.106,8.887,15.907,0,31.726-16,54.3-54.92,22.928-7.554,48.077-16.974,70.205-20.617,19.284,10.486,41.856,17.329,56.875,17.329,25.949,0,27.727-28.438,17.507-38.568-12.353-12.086-48.255-8.62-65.406-6.4ZM335.029,93.311,247.94,6.221A21.312,21.312,0,0,0,232.832,0H227.5V113.75H341.25v-5.421A21.26,21.26,0,0,0,335.029,93.311ZM269.179,320.189c3.644-2.4-2.222-10.575-38.035-8C264.113,326.232,269.179,320.189,269.179,320.189Z" fill="#e4e4e4"/>
</svg>
