<svg xmlns="http://www.w3.org/2000/svg" viewBox="0 0 339.5 146.47">
<defs><style>.cls-1{fill:#2eb66f;}.cls-2{font-size:48px;fill:#4c4c4d;font-family:Lato, sans-serif;font-weight:700;letter-spacing:0.2em;}.cls-3{letter-spacing:0.19em;}.cls-4{letter-spacing:0.2em;}.cls-5{fill:none;}.cls-6{fill:#e41e28;}</style></defs><g id="Layer_2" data-name="Layer 2"><g id="Layer_1-2" data-name="Layer 1"><path class="cls-1" d="M149,24.53a27.64,27.64,0,0,0-5,15.23,27.63,27.63,0,0,0,4.54,15.37c2,3,5.56,6.84,9.16,6.89l2,0a3.81,3.81,0,0,0,3.86-3.75l.11-8a3.79,3.79,0,0,0-3.74-3.85l-2,0A2.54,2.54,0,0,1,155.56,44l.29-8.18v0a2.24,2.24,0,0,1,2.26-2.2l2,0A3.8,3.8,0,0,0,164,29.83l.11-8a3.81,3.81,0,0,0-3.74-3.86l-2,0h0C155.46,17.86,151.88,20.4,149,24.53Zm9.31-3.05c2.08.06,2.05,0,2.16.1a.23.23,0,0,1,.06.16c-.14,8.49-.06,8.07-.18,8.19a.21.21,0,0,1-.16.06l-2,0a5.82,5.82,0,0,0-5.89,5.71L152,43.86v0A6.1,6.1,0,0,0,157.88,50l2,0a.21.21,0,0,1,.21.22c-.14,8.49-.06,8.08-.18,8.2a.23.23,0,0,1-.16.06l-2,0c-1.37,0-3.95-1.84-6.22-5.28a23.4,23.4,0,0,1,.38-26.58C154.28,23.21,156.91,21.46,158.29,21.48Z"/><path class="cls-1" d="M178.9,18.55h-2a3.8,3.8,0,0,0-3.8,3.8l0,8a3.8,3.8,0,0,0,3.8,3.8h2a2.23,2.23,0,0,1,2.23,2.23s0,0,0,0l.15,8.18a2.52,2.52,0,0,1-2.4,2.38h-2A3.81,3.81,0,0,0,173,50.81v8a3.81,3.81,0,0,0,3.79,3.81h2c3.61,0,7.23-3.75,9.27-6.74a26.95,26.95,0,0,0,.05-30.6C185.32,21.14,181.78,18.55,178.9,18.55Zm6.29,8.77a23.42,23.42,0,0,1,0,26.59c-2.32,3.4-4.93,5.18-6.31,5.17h-2a.25.25,0,0,1-.16-.06c-.12-.13,0,.29,0-8.2a.22.22,0,0,1,.22-.22h2a6.1,6.1,0,0,0,6-6v0l-.16-8.19a5.79,5.79,0,0,0-5.8-5.8h-2a.2.2,0,0,1-.15-.06c-.12-.12,0,.3-.05-8.2a.2.2,0,0,1,.06-.15c.12-.12.08,0,2.17-.06C180.27,22.13,182.88,23.91,185.19,27.32Z"/><text class="cls-2" transform="translate(0 133.7)">MEDICALL</text><path class="cls-5" d="M142.08,14.52h52.73V67.25H142.08Z"/><path class="cls-6" d="M168.44,80.35a47.64,47.64,0,0,1-9-.87,3.34,3.34,0,1,1,1.26-6.56,41.06,41.06,0,0,0,7.7.74c20.29,0,36.8-14.87,36.8-33.15a3.35,3.35,0,1,1,6.69,0C211.93,62.48,192.42,80.35,168.44,80.35Z"/><path class="cls-6" d="M144.35,73a3.32,3.32,0,0,1-1.89-.59c-11.12-7.6-17.5-19.23-17.5-31.9a3.35,3.35,0,1,1,6.69,0c0,10.42,5.32,20,14.59,26.38A3.35,3.35,0,0,1,144.35,73Z"/><path class="cls-6" d="M144.36,87.34A3.35,3.35,0,0,1,141,84V69.65a3.34,3.34,0,0,1,3.34-3.34h0a3.35,3.35,0,0,1,3.34,3.35V84A3.35,3.35,0,0,1,144.36,87.34Z"/><path class="cls-6" d="M208.58,43.19a3.35,3.35,0,0,1-3.34-3.35c0-18.28-16.51-33.15-36.8-33.15s-36.79,14.87-36.79,33.15a3.35,3.35,0,1,1-6.69,0C125,17.87,144.47,0,168.44,0s43.49,17.87,43.49,39.84A3.35,3.35,0,0,1,208.58,43.19Z"/><path class="cls-6" d="M144.36,87.33A3.34,3.34,0,0,1,142.87,81l15.75-7.8a3.34,3.34,0,0,1,3,6L145.84,87A3.28,3.28,0,0,1,144.36,87.33Z"/></g></g></svg>